<svg width="16" height="16" viewBox="0 0 16 16" fill="none" xmlns="http://www.w3.org/2000/svg">
<g clip-path="url(#clip0_989_7176)">
<path d="M11.0808 0C11.118 0 11.1552 0 11.1946 0C11.2859 1.12835 10.8552 1.97146 10.3318 2.582C9.81822 3.18834 9.11493 3.7764 7.97745 3.68717C7.90157 2.57498 8.33295 1.79441 8.85568 1.18526C9.34046 0.617573 10.2292 0.112414 11.0808 0Z" fill="white"/>
<path d="M14.5208 11.7456C14.5208 11.7568 14.5208 11.7666 14.5208 11.7772C14.2011 12.7453 13.7451 13.5751 13.1887 14.3451C12.6807 15.0442 12.0582 15.985 10.9467 15.985C9.98629 15.985 9.34834 15.3674 8.36402 15.3505C7.32278 15.3337 6.75018 15.8669 5.79817 16.0011C5.68927 16.0011 5.58037 16.0011 5.47358 16.0011C4.7745 15.9 4.21033 15.3463 3.79931 14.8475C2.58735 13.3735 1.6508 11.4694 1.47656 9.03287C1.47656 8.79399 1.47656 8.55582 1.47656 8.31694C1.55033 6.57312 2.39765 5.1553 3.5239 4.46817C4.11829 4.10282 4.9354 3.79158 5.84524 3.93069C6.23518 3.99111 6.63355 4.1246 6.98273 4.25669C7.31365 4.38386 7.72747 4.60939 8.11952 4.59744C8.38509 4.58972 8.64927 4.45131 8.91695 4.35365C9.70104 4.0705 10.4697 3.74591 11.4828 3.89837C12.7004 4.08245 13.5646 4.62344 14.0985 5.45811C13.0685 6.11363 12.2542 7.10146 12.3934 8.78837C12.517 10.3207 13.4079 11.2172 14.5208 11.7456Z" fill="white"/>
</g>
<defs>
<clipPath id="clip0_989_7176">
<rect width="16" height="16" fill="white"/>
</clipPath>
</defs>
</svg>
