<svg width="16" height="16" viewBox="0 0 16 16" fill="none" xmlns="http://www.w3.org/2000/svg">
<g clip-path="url(#clip0_989_7168)">
<path d="M3.54594 9.66844L2.989 11.7476L0.953406 11.7906C0.345063 10.6623 0 9.37131 0 7.99944C0 6.67284 0.322625 5.42184 0.8945 4.32031H0.894938L2.70719 4.65256L3.50106 6.45394C3.33491 6.93834 3.24434 7.45834 3.24434 7.99944C3.24441 8.58669 3.35078 9.14934 3.54594 9.66844Z" fill="#FBBB00"/>
<path d="M15.8562 6.50781C15.9481 6.99175 15.996 7.49153 15.996 8.00231C15.996 8.57506 15.9358 9.13375 15.8211 9.67266C15.4316 11.5065 14.414 13.1078 13.0044 14.241L13.0039 14.2406L10.7213 14.1241L10.3983 12.1074C11.3336 11.5588 12.0646 10.7003 12.4497 9.67266H8.17188V6.50781H12.5121H15.8562Z" fill="#518EF8"/>
<path d="M13.0076 14.2411L13.0081 14.2415C11.6371 15.3435 9.89553 16.0028 7.99972 16.0028C4.95312 16.0028 2.30434 14.3 0.953125 11.7941L3.54566 9.67188C4.22125 11.4749 5.96059 12.7585 7.99972 12.7585C8.87619 12.7585 9.69731 12.5215 10.4019 12.1079L13.0076 14.2411Z" fill="#28B446"/>
<path d="M13.1025 1.84175L10.5108 3.9635C9.78162 3.50769 8.91962 3.24437 7.99612 3.24437C5.91084 3.24437 4.13897 4.58678 3.49722 6.4545L0.891062 4.32088H0.890625C2.22206 1.75384 4.90425 0 7.99612 0C9.93722 0 11.717 0.691437 13.1025 1.84175Z" fill="#F14336"/>
</g>
<defs>
<clipPath id="clip0_989_7168">
<rect width="16" height="16" fill="white"/>
</clipPath>
</defs>
</svg>
